<?xml version="1.0" encoding="utf-8"?>
<!-- Generator: Adobe Illustrator 18.0.0, SVG Export Plug-In . SVG Version: 6.00 Build 0)  -->
<!DOCTYPE svg PUBLIC "-//W3C//DTD SVG 1.1//EN" "http://www.w3.org/Graphics/SVG/1.1/DTD/svg11.dtd">
<svg version="1.1" id="Layer_1" xmlns="http://www.w3.org/2000/svg" xmlns:xlink="http://www.w3.org/1999/xlink" x="0px" y="0px"
	 viewBox="0 0 512 512" enable-background="new 0 0 512 512" xml:space="preserve">
<path d="M0,0c0,0,0,201.2,0,269.1C0,333.9,0,512,0,512s129.2,0,175.1,0c14.2,0,17.5-5.6,17.5-12.3c0-6.1-0.2-26.3-0.4-47.7
	C121,467.5,106,421.8,106,421.8c-11.7-29.6-28.4-37.4-28.4-37.4c-23.3-15.9,1.8-15.6,1.8-15.6c25.7,1.8,39.2,26.4,39.2,26.4
	c22.8,39.1,59.9,27.8,74.5,21.3c2.3-16.5,9-27.8,16.3-34.2c-56.8-6.5-116.6-28.4-116.6-126.5c0-28,10-50.8,26.3-68.7
	c-2.6-6.5-11.4-32.5,2.5-67.8c0,0,21.5-6.9,70.4,26.3c20.4-5.7,42.3-8.5,64.1-8.6c21.8,0.1,43.7,2.9,64.1,8.6
	c48.8-33.2,70.3-26.3,70.3-26.3c14,35.3,5.2,61.3,2.6,67.8c16.4,17.9,26.3,40.7,26.3,68.7c0,98.3-59.9,120-116.9,126.3
	c9.2,7.9,17.4,23.5,17.4,47.4c0,34.2-0.3,61.8-0.3,70.3c0,6.8,5.4,12.3,17.6,12.3c47.9,0,174.9,0,174.9,0s0-187.7,0-242.9
	C512,192.9,512,0,512,0"/>
</svg>
