<?xml version="1.0" encoding="utf-8"?>
<!-- Generator: Adobe Illustrator 18.0.0, SVG Export Plug-In . SVG Version: 6.00 Build 0)  -->
<!DOCTYPE svg PUBLIC "-//W3C//DTD SVG 1.1//EN" "http://www.w3.org/Graphics/SVG/1.1/DTD/svg11.dtd">
<svg version="1.1" id="Layer_1" xmlns="http://www.w3.org/2000/svg" xmlns:xlink="http://www.w3.org/1999/xlink" x="0px" y="0px"
	 viewBox="192 752 1024 1024" enable-background="new 192 752 1024 1024" xml:space="preserve">
<rect x="192" y="752" width="1024" height="1024"/>
<path fill="#FFFFFF" d="M192,752c0,0,0,402.453,0,538.188c0,129.516,0,485.812,0,485.812s258.333,0,350.156,0
	c28.344,0,34.938-11.125,34.938-24.625c0-12.188-0.469-52.562-0.719-95.312C434,1687,403.906,1595.688,403.906,1595.688
	c-23.312-59.125-56.844-74.875-56.844-74.875c-46.531-31.75,3.53-31.125,3.53-31.125c51.406,3.562,78.47,52.75,78.47,52.75
	c45.688,78.25,119.875,55.625,149,42.5c4.654-33,17.904-55.625,32.5-68.375c-113.656-12.937-233.218-56.875-233.218-253.063
	c0-55.938,19.969-101.562,52.656-137.406c-5.219-13-22.844-65.094,5.062-135.562c0,0,42.938-13.75,140.812,52.5
	c40.812-11.406,84.594-17.031,128.125-17.219c43.5,0.188,87.312,5.875,128.188,17.281c97.688-66.312,140.688-52.5,140.688-52.5
	c28,70.531,10.375,122.562,5.125,135.5c32.812,35.844,52.625,81.469,52.625,137.406c0,196.688-119.75,240-233.812,252.688
	c18.438,15.875,34.75,47,34.75,94.75c0,68.438-0.688,123.625-0.688,140.5c0,13.625,10.792,24.562,35.25,24.562
	c95.875,0,349.875,0,349.875,0s0-375.468,0-485.812c0-152.368,0-538.188,0-538.188"/>
</svg>
