<?xml version="1.0" encoding="utf-8"?>
<!-- Generator: Adobe Illustrator 18.0.0, SVG Export Plug-In . SVG Version: 6.00 Build 0)  -->
<!DOCTYPE svg PUBLIC "-//W3C//DTD SVG 1.1//EN" "http://www.w3.org/Graphics/SVG/1.1/DTD/svg11.dtd">
<svg version="1.1" id="Layer_1" xmlns="http://www.w3.org/2000/svg" xmlns:xlink="http://www.w3.org/1999/xlink" x="0px" y="0px"
	 viewBox="0 0 591 560" enable-background="new 0 0 591 560" xml:space="preserve">
<path stroke="#000000" stroke-miterlimit="10" d="M469,227.268c-14.75,0.628-35.25,2.066-35.25,2.066l-5.833-15.583l43.583-5.083
	C471.5,208.667,473.579,227.073,469,227.268z"/>
<path fill="#494949" stroke="#000000" stroke-miterlimit="10" d="M67.374,492.75C102.219,478.331,194,448.068,209.5,442.096
	c15.5-5.971,197-42.034,231.5-34.534s61,24.969,76,39.469s22.001,28.133,32.5,38.234c8.057,7.752,56.5,80.234,56.5,80.234H-32.5
	C-32.5,565.5,42,503.25,67.374,492.75z"/>
<path fill="#DB9C72" stroke="#000000" stroke-miterlimit="10" d="M440.254,197.355c8.892-9.67-12.581-40.301-24.504-73.605
	c-14.5-40.5-69.565-97.156-150.376-97.213c-70.874-0.05-86.395,21.088-100.68,32.653s-45.578,55.102-51.02,89.116
	s5.442,70.068,25.17,91.156S193.68,332.354,193,348s-2.456,86.02-2.456,86.02s-12.925,46.939,41.497,70.748
	c54.422,23.81,52.459,17.731,105.442,31.973c51.31,13.792,56.017,6.758,56.017,6.758l-8.398-95.194l-18.685-15.973
	c0,0-4.444-6.476,22.087-3.755c26.531,2.721,38.407-8.461,43.538-16.04c6.458-9.538-5.443-34.981-5.443-34.981
	s11.042-14.096,12.068-20.172c0.574-3.396-1.184-11.801-1.184-11.801S447.75,340.25,444.5,332
	c-4.023-10.213-7.561-22.093-7.561-22.093s3.066-3.895,15.311-8.657s9.043-17.447,7.002-21.25
	c-2.041-3.803-26.835-34.736-26.835-34.736S433.051,205.189,440.254,197.355z"/>
<path fill="#754C24" stroke="#42210B" stroke-miterlimit="10" d="M422,106.5c0,0-3.132,27.043-99.5,36.5
	c-50.383,4.944-65.5,4.75-65.5,4.75s1,14.5,5.75,20c13.072,15.136-10.25,28.75-13.25,54.25s2.266,64.497,5.75,75
	c1.314,3.959-15.331-3.051-20-8c-5.871-6.222-20.417-27.667-20.417-27.667s-2.527-1.079-7.5-2.833
	C169.148,245.027,194.25,346,194.25,346s-86.543-122.937-84.75-169c2.776-71.333,20-101.5,70-132.5S258.5,17,285,20
	S398.5,32.5,422,106.5z"/>
<path fill="#DB9C72" stroke="#A67C52" stroke-miterlimit="10" d="M232,330.5c0,0,5.5,17-9.5,13.5s-37.5-16.75-42-22
	c-9.658-11.268-27.347-43.287-24.779-53.071C158.29,259.144,165.25,252.701,177,254c13.574,1.5,29.5,23.5,34.5,28.5
	s-4.5,15.25-1,21.75s7.456,6.005,11,9C228.542,319.2,232,330.5,232,330.5z"/>
<g id="Facial_Hair">
	<path opacity="0.42" fill="#754C24" d="M235.25,289c0,0,7.75,73.333,13.083,81.333c4.328,6.493,74.782,42.994,96.115,51.167
		c20.855,7.99,63.092,8.166,71.552,4.5c10-4.333,17.877-11.333,17.861-19.165c-0.028-13.157-1.286-13.777-2.527-18.335
		c-1.086-3.989-4.735-10.942-0.789-16.833c1.907-2.846-8.434,0.69-10.545,2c-5.166,3.206-9.838,27.438-19.946,28
		c-18,1-21.237-0.374-43.271-14.667c-16.445-10.667-33.782-37.667-52.449-45.333c-18.408-7.56-38.667-12.333-43-20.333
		C257.471,314.202,255.25,297,255.25,297L235.25,289z"/>
	<path opacity="0.42" fill="#754C24" d="M399,215.5c0,0-19-5.649-36.667-3.435c-18.929,2.372-35.167,8.102-35.167,8.102
		s-14.447,2.707-15.767,1.667c-2.504-1.973,13.27-10.294,18.851-13.27c10-5.333,33.75-14.23,61.083-9.897
		c12.785,2.027,14.667,9.897,14.667,9.897L399,215.5z"/>
	<path opacity="0.42" fill="#754C24" d="M420,202v8c0,0,20.667-9.667,22.333-13c1.667-3.333,1.004-9.084-2.667-10
		C432.749,185.273,420,202,420,202z"/>
</g>
<g id="Eyes" display="none">
	<path display="inline" fill="#F7E6D7" d="M349.667,246.333c0,0,6.749,7.182,13.333,6.833c6-0.318,14.167-7,14.167-7
		s4.165-8.896-0.028-13.047c-2.897-2.868-3.313-2.746-4.639-2.62c-10.5,1-37.945,9.667-37.945,9.667L349.667,246.333z"/>
	<path display="inline" fill="#F7E6D7" d="M418.833,222.833l6.335,14.195c0,0,7.165-1.009,8.693-2.695
		C436.487,231.433,437,219,437,219S427.917,217.333,418.833,222.833z"/>
	<path display="inline" fill="#5A5A72" d="M372.667,246.083c0,0-3.369,5.79-7.5,2.083c-3.25-2.917-5.667-8.167-4.434-11.138
		c1.456-3.51,5.434-5.195,8.434-4.695s5.25,1.75,5.417,5.917C374.75,242.417,373.651,244.366,372.667,246.083z"/>
	<ellipse display="inline" fill="#161616" cx="368.96" cy="241" rx="2.457" ry="3.75"/>
	<path display="inline" fill="#5A5A72" d="M435.394,224.046c0,0,0.383,3.403-1.644,5.287c-2.027,1.885-6.25,2.914-6.25,2.914
		l-1.833-6.08c0,0,2.028-2.899,5.129-3.667C434.584,221.562,435.394,224.046,435.394,224.046z"/>
</g>
<path stroke="#000000" stroke-miterlimit="10" d="M316.083,260.917c0,0-146.042-7.958-149.708-7.292s-11.354,6.354-10.688,13.021
	c0.667,6.667-3.677,8.677-3.677,8.677s-7.791-12.469-4.339-15.995c3.452-3.526,10.331-13.331,14.997-13.664
	c4.667-0.333,153.332-2.999,153.332-2.999s13.333,0.334,15.666,0.001c2.333-0.333,28.166-10.624,46.583-13.041
	c20.636-2.708,30.417-1.625,34.083-0.958s8.705,2.093,13.705-1.361S443.5,216.25,448.5,214.25s21.26-6.417,23-5.583
	c0.977,0.468-18.258,6.34-21.167,7.333c-21.958,7.5-19.333,14.667-21,15.333c-0.319,0.127,0.167,14.417,0.167,14.417l-2.75-3.755
	c0,0-1.375-8.495-7.125-8.62c-3.075-0.067-4.25-0.667-5.125,2.25c-0.559,1.862-2.375,17-2.375,17l-0.875,0.5
	c0,0,2.814-16.643-0.875-20.125c-5.417-5.112-21.375-1.375-31.5-0.125c-7.967,0.984-33.871,6.634-34.256,11.995
	C344.125,251.75,345,270.5,345,270.5l-2.25,0.625L340,259.667C340,259.667,321.165,261.192,316.083,260.917z"/>
<path opacity="0.5" fill="#FCFCFC" stroke="#B3B3B3" stroke-miterlimit="10" d="M344.619,244.87c0,0-1.367,27.852,3.631,35.13
	c1.531,2.23,4.917,2.5,10.583,2.25C364.5,282,398,277,402.75,271s7.395-25.746,8.25-29.057c0.689-2.666,2.042-7.636,0.711-8.568
	c-5.711-4-22.945-2.301-32.836-0.5S346.488,241.989,344.619,244.87z"/>
<path opacity="0.5" fill="#FCFCFC" stroke="#CCCCCC" stroke-miterlimit="10" d="M444.633,260.651c0,0,21.367-7.089,23.617-11.245
	c2.25-4.156,1.994-4.319,3.286-12.377c1.464-9.133,1.839-24.464-2.661-24.964s-5.5-0.11-13.5,2.31
	c-8.206,2.482-20.885,8.355-22.899,11.555S429.5,245.75,431.5,247"/>
<g id="Features" display="none">
	<path display="inline" opacity="0.5" fill="#895551" d="M389.558,362.801c1.833,5.5,40.153,3.365,45.275-0.635
		c5.122-4,3.167-16.833,3.167-16.833s-5.267,6.336-11.933,5.336C419.4,349.669,389.558,362.801,389.558,362.801z"/>
	<path display="inline" opacity="0.5" fill="#895551" d="M443.199,330.667c0,0-2.865,6.667-6.199,6.667s-5.244-3.667-6.455-5
		c-1.211-1.333-48.74,27.317-42.74,29.667c2.656,1.04,34.347-12.405,37.862-12.333c8.194,0.167,7.833-0.333,14.167-5.667
		c6.333-5.333,5.25-9.25,5.583-10.25C445.75,332.75,443.199,330.667,443.199,330.667z"/>
	<path display="inline" opacity="0.75" fill="#754C24" d="M443.167,300.5c0,0-6.667-2.167-14.833,0
		C420.167,302.667,414,310.833,414,310.833L443.167,300.5z"/>
	<path display="inline" opacity="0.75" fill="none" stroke="#754C24" stroke-width="2" stroke-miterlimit="10" d="M406,316.5
		c-5-2.5-13.862-6.868-11.5-17.346c1.5-6.654,7.219-8.962,7.219-8.962"/>
</g>
</svg>
