<?xml version="1.0" encoding="utf-8"?>
<!-- Generator: Adobe Illustrator 18.0.0, SVG Export Plug-In . SVG Version: 6.00 Build 0)  -->
<!DOCTYPE svg PUBLIC "-//W3C//DTD SVG 1.1//EN" "http://www.w3.org/Graphics/SVG/1.1/DTD/svg11.dtd">
<svg version="1.1" id="Layer_1" xmlns="http://www.w3.org/2000/svg" xmlns:xlink="http://www.w3.org/1999/xlink" x="0px" y="0px"
	 viewBox="0 0 370 264" enable-background="new 0 0 370 264" xml:space="preserve">
<g id="code" display="none">
	<polygon display="inline" fill="#999999" points="67.974,199.175 1.506,132.707 68.681,65.532 89.894,86.745 43.932,132.707 
		89.187,177.962 	"/>
	<polygon display="inline" fill="#999999" points="301.32,199.175 280.107,177.962 326.069,132 280.107,86.038 301.32,64.825 
		368.494,132 	"/>
	<rect x="112" y="165" display="inline" fill="#7CFF66" width="93" height="30"/>
</g>
<g id="mechanical" display="none">
	<polygon display="inline" fill="#999999" points="315,97 285,97 285,33 220,33 220,3 315,3 	"/>
	<polygon display="inline" fill="#999999" points="150,262 55,262 55,167 85,167 85,232 150,232 	"/>
	<g display="inline">
		<polygon fill="#8700B0" points="236.716,127 226.536,127 221.908,146 241.344,146 		"/>
		<polygon fill="#8700B0" points="226.732,233 236.913,233 241.54,214 222.105,214 		"/>
		<polygon fill="#8700B0" points="285,183.297 285,173.116 266,168.488 266,187.924 		"/>
		<polygon fill="#8700B0" points="179,173.313 179,183.493 198,188.121 198,168.685 		"/>
		<polygon fill="#8700B0" points="273.222,143.866 266.024,136.667 249.463,146.684 263.206,160.427 		"/>
		<polygon fill="#8700B0" points="190.226,212.743 197.425,219.942 213.986,209.925 200.243,196.182 		"/>
		<polygon fill="#8700B0" points="266.163,219.803 273.362,212.604 263.345,196.043 249.602,209.786 		"/>
		<polygon fill="#8700B0" points="197.286,136.806 190.087,144.005 200.104,160.566 213.847,146.823 		"/>
		<path fill="#8700B0" d="M231.724,138.704c21.871,0,39.6,17.73,39.6,39.6s-17.73,39.6-39.6,39.6s-39.6-17.73-39.6-39.6
			S209.854,138.704,231.724,138.704z M214.724,178.305c0,9.389,7.611,17,17,17s17-7.611,17-17s-7.611-17-17-17
			S214.724,168.916,214.724,178.305z"/>
	</g>
	<g display="inline">
		<polygon fill="#8700B0" points="158.858,33 148.677,33 144.05,50 163.485,50 		"/>
		<polygon fill="#8700B0" points="148.874,171 159.055,171 163.682,152 144.247,152 		"/>
		<polygon fill="#8700B0" points="223,105.438 223,95.257 204,90.63 204,110.066 		"/>
		<polygon fill="#8700B0" points="85,95.455 85,105.635 102,110.263 102,90.827 		"/>
		<polygon fill="#8700B0" points="193.091,42.49 184.274,37.4 170.87,51.362 187.702,61.08 		"/>
		<polygon fill="#8700B0" points="114.641,158.403 123.458,163.493 136.862,149.531 120.03,139.813 		"/>
		<polygon fill="#8700B0" points="211.822,139.671 216.912,130.855 202.951,117.45 193.233,134.282 		"/>
		<polygon fill="#8700B0" points="95.91,61.222 90.82,70.038 104.781,83.442 114.499,66.611 		"/>
		<polygon fill="#8700B0" points="216.814,69.867 211.724,61.051 193.134,66.44 202.852,83.272 		"/>
		<polygon fill="#8700B0" points="90.918,131.026 96.008,139.842 114.598,134.453 104.88,117.621 		"/>
		<polygon fill="#8700B0" points="184.445,163.394 193.262,158.304 187.873,139.715 171.041,149.432 		"/>
		<polygon fill="#8700B0" points="123.287,37.499 114.47,42.589 119.859,61.178 136.691,51.46 		"/>
		<path fill="#8700B0" d="M153.866,48.093c28.914,0,52.353,23.439,52.353,52.353s-23.439,52.353-52.353,52.353
			s-52.353-23.439-52.353-52.353S124.952,48.093,153.866,48.093z M140.778,100.446c0,7.228,5.86,13.088,13.088,13.088
			s13.088-5.86,13.088-13.088c0-7.228-5.86-13.088-13.088-13.088S140.778,93.218,140.778,100.446z"/>
	</g>
</g>
<g id="design_2_">
	<polygon fill="#999999" points="81,97 51,97 51,3 146,3 146,33 81,33 	"/>
	<polygon fill="#999999" points="311,262 216,262 216,232 281,232 281,167 311,167 	"/>
	<g>
		<defs>
			<path id="SVGID_1_" d="M319.188,258H50.855L50.812,2.25h268.376V258z M263.926,80.496
				c-23.196-11.311-32.641-32.436-32.733-32.647l-7.339,3.183c0.421,0.974,10.618,24.003,36.566,36.655L263.926,80.496z"/>
		</defs>
		<clipPath id="SVGID_2_">
			<use xlink:href="#SVGID_1_"  overflow="visible"/>
		</clipPath>
		<path clip-path="url(#SVGID_2_)" fill="#00BDE6" d="M247.865,32.119L105.03,174.954c-4.537,4.537-24.749,55.154-24.749,55.154
			s50.617-20.211,55.154-24.749L278.271,62.524c5.922-5.922,4.331-17.589-4.243-26.163
			C264.571,26.904,254.017,25.967,247.865,32.119z"/>
	</g>
</g>
</svg>
